PathFileType	4	(X/Y/Z)	C:/Users/opensim2020/Desktop/walking_exp_matlab/subject01_walking15_straight_02.trc	
DataRate	CameraRate	NumFrames	NumMarkers	Units	OrigDataRate	OrigDataStartFrame	OrigNumFrames	
100.00	100.00	6	43	mm	100.00	1246	135	
Frame#	Time	LFHD			RFHD			LBHD			RBHD			C7			T10			CLAV			STRN			RBAK			LSHO			LUPA			LELB			LFRM			LWRA			LWRB			LFIN			RSHO			RUPA			RELB			RFRM			RWRA			RWRB			RFIN			LASI			RASI			LPSI			RPSI			LTHI			LKNE			LTIB			LANK			LHEE			LTOE			RTHI			RKNE			RTIB			RANK			RHEE			RTOE			*39			*40			*41			*42			
		X1	Y1	Z1	X2	Y2	Z2	X3	Y3	Z3	X4	Y4	Z4	X5	Y5	Z5	X6	Y6	Z6	X7	Y7	Z7	X8	Y8	Z8	X9	Y9	Z9	X10	Y10	Z10	X11	Y11	Z11	X12	Y12	Z12	X13	Y13	Z13	X14	Y14	Z14	X15	Y15	Z15	X16	Y16	Z16	X17	Y17	Z17	X18	Y18	Z18	X19	Y19	Z19	X20	Y20	Z20	X21	Y21	Z21	X22	Y22	Z22	X23	Y23	Z23	X24	Y24	Z24	X25	Y25	Z25	X26	Y26	Z26	X27	Y27	Z27	X28	Y28	Z28	X29	Y29	Z29	X30	Y30	Z30	X31	Y31	Z31	X32	Y32	Z32	X33	Y33	Z33	X34	Y34	Z34	X35	Y35	Z35	X36	Y36	Z36	X37	Y37	Z37	X38	Y38	Z38	X39	Y39	Z39	X40	Y40	Z40	X41	Y41	Z41	X42	Y42	Z42	X43	Y43	Z43	

102	1.010	-969.04706	-380.99344	1666.71191	-1078.37964	-411.24881	1678.77417	-997.09125	-271.14243	1613.67554	-1114.83557	-301.23737	1625.70447	-1037.97986	-251.45554	1429.28625	-1054.54370	-208.50717	1137.26733	-1045.13513	-395.46390	1361.48779	-1048.30432	-434.48404	1205.06738	-1119.38525	-189.99176	1242.70850	-882.52875	-341.10321	1390.19580	-797.87146	-317.90051	1207.15784	-798.80939	-309.01852	1053.02954	-777.05298	-371.38831	954.73932	-793.06171	-478.98621	866.23303	-776.89069	-425.83691	845.27209	-760.98792	-487.71533	791.75214	-1192.08582	-328.27594	1402.07898	-1294.22729	-244.35201	1214.19263	-1302.92639	-236.98312	1088.41626	-1338.08179	-257.08688	970.03729	-1322.14099	-331.99100	848.16486	-1361.27429	-289.02472	852.23901	-1364.59619	-323.98181	772.43463	-954.99536	-388.24530	937.31464	-1171.57922	-381.77600	936.91797	-1006.06616	-202.20226	941.96448	-1150.83887	-201.62326	940.82574	-904.46564	-352.70056	598.20306	-922.68097	-337.25552	463.17343	-918.02460	-266.71085	285.52713	-969.94904	-210.53658	75.50659	-1022.27374	-160.87569	50.50328	-963.55957	-352.66058	32.35146	-1248.86133	-422.50839	614.64307	-1239.63220	-474.17374	463.90723	-1238.26355	-361.08017	327.20352	-1189.40869	-256.68201	150.53429	-1130.97156	-204.10570	131.56512	-1206.95752	-359.02048	55.10366	-1056.14417	-393.26297	1709.90845	-3101.89478	1973.13635	1023.55280	-3140.65088	2012.47766	1021.97662			 
103	1.020	-969.40283	-394.08157	1666.28735	-1078.74585	-424.07071	1678.46912	-997.37799	-284.07520	1613.42957	-1114.82178	-314.23907	1625.09680	-1037.75513	-264.32379	1429.14343	-1053.61768	-220.80109	1137.30957	-1045.18469	-408.12833	1361.03687	-1048.22424	-446.92358	1204.69141	-1118.49500	-202.62164	1242.45020	-882.60962	-354.13901	1390.23975	-797.02435	-331.82916	1207.78748	-796.82428	-324.42026	1053.24890	-775.29779	-391.21878	957.58521	-791.32843	-502.52698	874.20618	-774.92633	-450.53036	850.69708	-759.43390	-514.77441	800.01666	-1191.93591	-340.98743	1401.52844	-1293.28564	-255.53561	1213.79333	-1301.72876	-247.28227	1088.43848	-1337.52026	-263.52798	969.96667	-1323.26123	-334.49347	845.60114	-1361.40564	-291.20651	851.26947	-1366.07629	-323.56549	770.69409	-954.31958	-399.82028	936.71570	-1170.79492	-394.19620	937.21887	-1006.03052	-214.13638	941.75452	-1150.59302	-213.66354	940.48907	-903.99371	-359.48996	598.08154	-921.98834	-340.75153	463.16287	-917.88159	-268.47623	286.22711	-970.14111	-210.74445	76.46777	-1022.67004	-161.28763	51.75486	-963.54871	-352.74188	32.36777	-1248.61230	-438.75293	616.70270	-1239.07263	-492.42923	465.82751	-1238.94568	-387.21237	322.27280	-1191.07605	-293.23422	139.67276	-1132.70166	-242.17914	116.23750	-1211.18909	-402.00793	52.42454	-1056.65784	-406.20352	1709.79871	-3101.95142	1973.19202	1023.48358	-3140.65259	2012.55200	1022.13525			 
104	1.030	-969.78949	-406.97757	1666.02991	-1079.19519	-436.89404	1678.04102	-998.62195	-297.26248	1613.08057	-1115.17676	-327.11130	1624.58899	-1037.84863	-277.17883	1428.91553	-1052.88416	-233.13815	1137.19666	-1045.39893	-420.93234	1360.53394	-1048.21216	-459.41373	1204.04504	-1117.75598	-215.28494	1242.07507	-882.76031	-367.42319	1390.27380	-796.36145	-345.75412	1208.21497	-794.77655	-339.80133	1053.58533	-773.62958	-410.66785	960.33105	-789.67517	-525.62384	882.32489	-773.46210	-474.78595	856.26703	-757.97473	-541.49054	808.62183	-1192.08459	-353.64636	1400.84753	-1292.50232	-266.77045	1213.28027	-1300.74268	-257.48273	1088.37622	-1336.96106	-270.06116	969.90533	-1324.23438	-337.35251	843.35608	-1361.52625	-293.65494	850.58539	-1367.30469	-323.49521	768.99121	-953.60034	-411.37781	936.15051	-1170.14905	-406.63983	937.25769	-1005.87048	-225.70456	941.21332	-1150.53357	-226.01128	940.06763	-903.61188	-366.09464	597.99756	-921.30750	-344.53186	463.23764	-917.82568	-270.58215	287.12103	-970.59790	-211.24005	77.72196	-1023.27307	-161.56425	53.45606	-963.50250	-352.77411	32.39119	-1248.20068	-454.33807	618.48022	-1238.59692	-509.91644	467.41260	-1240.11096	-412.97888	317.44461	-1193.92773	-330.63428	129.04218	-1135.43457	-281.49783	101.58878	-1215.85583	-445.44022	50.64901	-1057.12000	-418.88837	1709.18555	-3101.96851	1973.16821	1023.41522	-3140.73633	2012.55444	1022.07684			 
105	1.040	-970.25519	-419.58801	1665.86255	-1079.65967	-449.74084	1677.50781	-998.28601	-309.93332	1612.54895	-1115.52686	-339.98041	1623.90454	-1038.29846	-289.97556	1428.62561	-1052.44788	-245.47939	1136.97278	-1045.62427	-433.74631	1359.89014	-1048.25635	-472.01382	1203.24854	-1117.14551	-227.92017	1241.51086	-882.97589	-380.58615	1390.11133	-795.87018	-359.65244	1208.47058	-793.43774	-355.42944	1053.55603	-772.02594	-429.91061	963.20898	-788.12207	-548.06378	890.53015	-772.09406	-498.64459	862.11884	-756.57690	-567.33032	817.68854	-1192.37854	-366.37546	1400.11255	-1291.98022	-277.84879	1212.71533	-1299.89319	-267.74124	1088.18604	-1336.55688	-276.76550	969.86084	-1325.09375	-340.41437	841.30261	-1361.85938	-296.37555	850.01740	-1368.50952	-323.68985	767.64728	-952.91583	-422.75970	935.50659	-1169.54700	-419.23285	937.09436	-1006.08826	-237.43547	940.63068	-1150.69556	-238.10629	939.34485	-903.26617	-372.60825	598.02325	-920.77350	-348.51529	463.42117	-917.96307	-272.74081	288.02994	-971.02850	-211.83269	79.09377	-1023.94159	-162.08287	55.41251	-963.58289	-352.73059	32.41164	-1247.98889	-469.72235	619.82733	-1238.37329	-526.36688	468.62311	-1241.69910	-438.42947	312.87280	-1197.71570	-368.58072	118.97522	-1139.49976	-321.39761	87.60775	-1220.93494	-489.08093	49.48119	-1057.75049	-431.74786	1708.83826	-3101.98901	1973.05371	1023.39850	-3140.81519	2012.44019	1022.14935			 
106	1.050	-970.77686	-432.81302	1665.14319	-1080.21216	-462.62473	1676.94250	-998.92712	-323.06284	1611.91553	-1116.29150	-352.76239	1623.38416	-1038.14929	-302.91660	1428.10449	-1052.26587	-257.97375	1136.60815	-1045.93713	-446.61960	1359.11707	-1048.34741	-484.59424	1202.32813	-1116.77734	-240.55237	1240.87561	-883.25458	-393.71954	1389.83337	-795.56970	-373.35574	1208.48608	-791.47925	-370.31323	1053.72852	-770.49542	-448.90936	966.13086	-786.69110	-570.02570	898.89886	-770.60004	-522.11530	868.10132	-755.18390	-593.13837	826.99683	-1192.55713	-379.01807	1399.18164	-1291.44006	-289.17761	1211.94214	-1299.23438	-277.94382	1087.91138	-1336.04419	-283.62473	969.76538	-1325.91418	-343.92380	839.58606	-1362.12842	-299.52859	849.62140	-1369.62378	-324.32104	766.62360	-952.22675	-434.78271	934.93726	-1169.05725	-431.96848	936.78290	-1006.48077	-249.05771	939.75854	-1150.81921	-250.50583	938.24799	-903.14423	-379.10321	598.15808	-920.37329	-352.75580	463.74097	-918.06793	-274.92630	289.08340	-971.52844	-212.37300	80.51453	-1024.72522	-162.84360	57.32609	-963.70209	-352.78320	32.37512	-1248.01050	-484.69794	620.52203	-1238.07605	-541.89478	469.35416	-1243.95361	-463.45639	308.74646	-1202.51648	-407.15967	109.72516	-1144.05200	-362.71591	74.82021	-1225.73059	-532.16119	48.66153	-1058.28369	-444.53217	1708.16150	-3101.93237	1973.10693	1023.56409	-3140.81421	2012.46497	1022.00781			 
107	1.060	-971.35895	-445.36594	1664.89905	-1080.78259	-475.50223	1676.29333	-999.20221	-335.72592	1611.34448	-1116.91809	-365.67410	1622.67798	-1038.50696	-315.79568	1427.61780	-1052.38684	-270.54938	1136.12988	-1046.36743	-459.57254	1358.35974	-1048.47571	-497.26724	1201.38416	-1116.52344	-253.25848	1240.14917	-883.62408	-406.87814	1389.41931	-795.36957	-387.07040	1208.42664	-790.09296	-386.30463	1053.63306	-769.12732	-467.67181	969.13666	-785.46906	-591.40649	907.28931	-769.49335	-544.89984	874.28979	-754.08881	-617.45947	836.40100	-1192.85107	-391.82919	1398.06226	-1291.06946	-300.47253	1211.12830	-1298.72021	-288.23752	1087.56433	-1335.87610	-290.72504	969.71014	-1326.69873	-347.23749	837.75171	-1362.58728	-303.12872	849.30518	-1370.27979	-325.46042	765.57349	-951.56750	-446.51297	934.14618	-1168.70142	-444.85394	936.21582	-1007.19135	-261.44687	939.17926	-1151.07251	-263.04257	936.94397	-903.14282	-385.69583	598.15240	-920.18732	-357.21304	464.00348	-918.25616	-277.37390	290.20447	-972.17969	-213.21638	82.08809	-1025.50684	-163.49042	59.54029	-963.83521	-352.69229	32.44588	-1247.64502	-498.82227	620.52283	-1237.66248	-556.55719	469.78717	-1246.74768	-488.18042	305.26895	-1207.32385	-446.67090	101.17806	-1149.66138	-403.98929	63.28255	-1230.92151	-575.64948	49.13220	-1058.97693	-457.51508	1707.66064	-3101.82568	1973.05286	1023.46796	-3140.77612	2012.48230	1022.06689			 
